<mxfile host="app.diagrams.net" modified="2024-05-20T19:31:10.294Z" agent="Mozilla/5.0 (Windows NT 10.0; Win64; x64) AppleWebKit/537.36 (KHTML, like Gecko) Chrome/125.0.0.0 Safari/537.36" etag="eJ3_Xi7Fju8QwSO2sdCC" version="24.4.4" type="github">
  <diagram id="C5RBs43oDa-KdzZeNtuy" name="Page-1">
    <mxGraphModel dx="581" dy="521" grid="1" gridSize="10" guides="1" tooltips="1" connect="1" arrows="1" fold="1" page="1" pageScale="1" pageWidth="827" pageHeight="1169" math="0" shadow="0">
      <root>
        <mxCell id="WIyWlLk6GJQsqaUBKTNV-0" />
        <mxCell id="WIyWlLk6GJQsqaUBKTNV-1" parent="WIyWlLk6GJQsqaUBKTNV-0" />
        <mxCell id="WIyWlLk6GJQsqaUBKTNV-3" value="lectura del&amp;nbsp;&lt;div&gt;archivo .cub&lt;/div&gt;" style="rounded=1;whiteSpace=wrap;html=1;fontSize=12;glass=0;strokeWidth=1;shadow=0;" parent="WIyWlLk6GJQsqaUBKTNV-1" vertex="1">
          <mxGeometry x="260" y="130" width="120" height="30" as="geometry" />
        </mxCell>
        <mxCell id="tJbcnurJ_hs3PTn9qM-I-15" style="edgeStyle=orthogonalEdgeStyle;rounded=0;orthogonalLoop=1;jettySize=auto;html=1;exitX=0.5;exitY=1;exitDx=0;exitDy=0;exitPerimeter=0;entryX=0.5;entryY=0;entryDx=0;entryDy=0;" edge="1" parent="WIyWlLk6GJQsqaUBKTNV-1" source="tJbcnurJ_hs3PTn9qM-I-1" target="tJbcnurJ_hs3PTn9qM-I-3">
          <mxGeometry relative="1" as="geometry" />
        </mxCell>
        <mxCell id="tJbcnurJ_hs3PTn9qM-I-16" value="SÍ" style="edgeLabel;html=1;align=center;verticalAlign=middle;resizable=0;points=[];" vertex="1" connectable="0" parent="tJbcnurJ_hs3PTn9qM-I-15">
          <mxGeometry x="-0.1886" y="1" relative="1" as="geometry">
            <mxPoint as="offset" />
          </mxGeometry>
        </mxCell>
        <mxCell id="tJbcnurJ_hs3PTn9qM-I-17" style="edgeStyle=orthogonalEdgeStyle;rounded=0;orthogonalLoop=1;jettySize=auto;html=1;exitX=0.78;exitY=0.5;exitDx=0;exitDy=0;exitPerimeter=0;entryX=0.5;entryY=0;entryDx=0;entryDy=0;" edge="1" parent="WIyWlLk6GJQsqaUBKTNV-1" source="tJbcnurJ_hs3PTn9qM-I-1" target="tJbcnurJ_hs3PTn9qM-I-9">
          <mxGeometry relative="1" as="geometry" />
        </mxCell>
        <mxCell id="tJbcnurJ_hs3PTn9qM-I-18" value="NO" style="edgeLabel;html=1;align=center;verticalAlign=middle;resizable=0;points=[];" vertex="1" connectable="0" parent="tJbcnurJ_hs3PTn9qM-I-17">
          <mxGeometry x="-0.1986" y="1" relative="1" as="geometry">
            <mxPoint as="offset" />
          </mxGeometry>
        </mxCell>
        <mxCell id="tJbcnurJ_hs3PTn9qM-I-1" value="lect&lt;div&gt;correcta?&lt;/div&gt;" style="strokeWidth=2;html=1;shape=mxgraph.flowchart.extract_or_measurement;whiteSpace=wrap;" vertex="1" parent="WIyWlLk6GJQsqaUBKTNV-1">
          <mxGeometry x="272.5" y="220" width="95" height="60" as="geometry" />
        </mxCell>
        <mxCell id="tJbcnurJ_hs3PTn9qM-I-13" style="edgeStyle=orthogonalEdgeStyle;rounded=0;orthogonalLoop=1;jettySize=auto;html=1;exitX=0.5;exitY=1;exitDx=0;exitDy=0;" edge="1" parent="WIyWlLk6GJQsqaUBKTNV-1" source="tJbcnurJ_hs3PTn9qM-I-2" target="WIyWlLk6GJQsqaUBKTNV-3">
          <mxGeometry relative="1" as="geometry" />
        </mxCell>
        <mxCell id="tJbcnurJ_hs3PTn9qM-I-2" value="./cub3d" style="rhombus;whiteSpace=wrap;html=1;" vertex="1" parent="WIyWlLk6GJQsqaUBKTNV-1">
          <mxGeometry x="280" y="20" width="80" height="80" as="geometry" />
        </mxCell>
        <mxCell id="tJbcnurJ_hs3PTn9qM-I-3" value="Inicialización del juego (ventana, buffer, texturas, mapa, jugador)" style="rounded=1;whiteSpace=wrap;html=1;fontSize=12;glass=0;strokeWidth=1;shadow=0;" vertex="1" parent="WIyWlLk6GJQsqaUBKTNV-1">
          <mxGeometry x="255" y="325" width="130" height="70" as="geometry" />
        </mxCell>
        <mxCell id="tJbcnurJ_hs3PTn9qM-I-20" style="edgeStyle=orthogonalEdgeStyle;rounded=0;orthogonalLoop=1;jettySize=auto;html=1;entryX=0.5;entryY=0;entryDx=0;entryDy=0;" edge="1" parent="WIyWlLk6GJQsqaUBKTNV-1" source="tJbcnurJ_hs3PTn9qM-I-4" target="tJbcnurJ_hs3PTn9qM-I-5">
          <mxGeometry relative="1" as="geometry" />
        </mxCell>
        <mxCell id="tJbcnurJ_hs3PTn9qM-I-4" value="Bucle principal" style="rounded=1;whiteSpace=wrap;html=1;fontSize=12;glass=0;strokeWidth=1;shadow=0;" vertex="1" parent="WIyWlLk6GJQsqaUBKTNV-1">
          <mxGeometry x="260" y="500" width="120" height="40" as="geometry" />
        </mxCell>
        <mxCell id="tJbcnurJ_hs3PTn9qM-I-5" value="Inicialización de la lógica (movimiento colisiones...)" style="rounded=1;whiteSpace=wrap;html=1;fontSize=12;glass=0;strokeWidth=1;shadow=0;" vertex="1" parent="WIyWlLk6GJQsqaUBKTNV-1">
          <mxGeometry x="255" y="560" width="130" height="70" as="geometry" />
        </mxCell>
        <mxCell id="tJbcnurJ_hs3PTn9qM-I-6" value="renderizado&lt;div&gt;(paredes,&lt;/div&gt;&lt;div&gt;suelo y techo)&lt;/div&gt;" style="rounded=1;whiteSpace=wrap;html=1;fontSize=12;glass=0;strokeWidth=1;shadow=0;" vertex="1" parent="WIyWlLk6GJQsqaUBKTNV-1">
          <mxGeometry x="255" y="760" width="130" height="70" as="geometry" />
        </mxCell>
        <mxCell id="tJbcnurJ_hs3PTn9qM-I-24" style="edgeStyle=orthogonalEdgeStyle;rounded=0;orthogonalLoop=1;jettySize=auto;html=1;entryX=0.5;entryY=0;entryDx=0;entryDy=0;" edge="1" parent="WIyWlLk6GJQsqaUBKTNV-1" source="tJbcnurJ_hs3PTn9qM-I-7" target="tJbcnurJ_hs3PTn9qM-I-11">
          <mxGeometry relative="1" as="geometry" />
        </mxCell>
        <mxCell id="tJbcnurJ_hs3PTn9qM-I-7" value="mostrar imagen en ventana" style="rounded=1;whiteSpace=wrap;html=1;fontSize=12;glass=0;strokeWidth=1;shadow=0;" vertex="1" parent="WIyWlLk6GJQsqaUBKTNV-1">
          <mxGeometry x="255" y="950" width="130" height="30" as="geometry" />
        </mxCell>
        <mxCell id="tJbcnurJ_hs3PTn9qM-I-9" value="mostrar&amp;nbsp;&lt;div&gt;error&lt;/div&gt;" style="rhombus;whiteSpace=wrap;html=1;" vertex="1" parent="WIyWlLk6GJQsqaUBKTNV-1">
          <mxGeometry x="570" y="320" width="80" height="80" as="geometry" />
        </mxCell>
        <mxCell id="tJbcnurJ_hs3PTn9qM-I-25" style="edgeStyle=orthogonalEdgeStyle;rounded=0;orthogonalLoop=1;jettySize=auto;html=1;" edge="1" parent="WIyWlLk6GJQsqaUBKTNV-1" source="tJbcnurJ_hs3PTn9qM-I-11" target="tJbcnurJ_hs3PTn9qM-I-12">
          <mxGeometry relative="1" as="geometry" />
        </mxCell>
        <mxCell id="tJbcnurJ_hs3PTn9qM-I-11" value="liberación de memoria" style="rounded=1;whiteSpace=wrap;html=1;fontSize=12;glass=0;strokeWidth=1;shadow=0;" vertex="1" parent="WIyWlLk6GJQsqaUBKTNV-1">
          <mxGeometry x="255" y="1000" width="130" height="30" as="geometry" />
        </mxCell>
        <mxCell id="tJbcnurJ_hs3PTn9qM-I-12" value="cierre" style="rhombus;whiteSpace=wrap;html=1;" vertex="1" parent="WIyWlLk6GJQsqaUBKTNV-1">
          <mxGeometry x="280" y="1060" width="80" height="80" as="geometry" />
        </mxCell>
        <mxCell id="tJbcnurJ_hs3PTn9qM-I-14" style="edgeStyle=orthogonalEdgeStyle;rounded=0;orthogonalLoop=1;jettySize=auto;html=1;entryX=0.5;entryY=0;entryDx=0;entryDy=0;entryPerimeter=0;" edge="1" parent="WIyWlLk6GJQsqaUBKTNV-1" source="WIyWlLk6GJQsqaUBKTNV-3" target="tJbcnurJ_hs3PTn9qM-I-1">
          <mxGeometry relative="1" as="geometry" />
        </mxCell>
        <mxCell id="tJbcnurJ_hs3PTn9qM-I-28" style="edgeStyle=orthogonalEdgeStyle;rounded=0;orthogonalLoop=1;jettySize=auto;html=1;exitX=0.78;exitY=0.5;exitDx=0;exitDy=0;exitPerimeter=0;" edge="1" parent="WIyWlLk6GJQsqaUBKTNV-1" source="tJbcnurJ_hs3PTn9qM-I-26" target="tJbcnurJ_hs3PTn9qM-I-9">
          <mxGeometry relative="1" as="geometry" />
        </mxCell>
        <mxCell id="tJbcnurJ_hs3PTn9qM-I-29" value="NO" style="edgeLabel;html=1;align=center;verticalAlign=middle;resizable=0;points=[];" vertex="1" connectable="0" parent="tJbcnurJ_hs3PTn9qM-I-28">
          <mxGeometry x="-0.1127" relative="1" as="geometry">
            <mxPoint as="offset" />
          </mxGeometry>
        </mxCell>
        <mxCell id="tJbcnurJ_hs3PTn9qM-I-30" value="SÍ" style="edgeStyle=orthogonalEdgeStyle;rounded=0;orthogonalLoop=1;jettySize=auto;html=1;" edge="1" parent="WIyWlLk6GJQsqaUBKTNV-1" source="tJbcnurJ_hs3PTn9qM-I-26" target="tJbcnurJ_hs3PTn9qM-I-4">
          <mxGeometry relative="1" as="geometry" />
        </mxCell>
        <mxCell id="tJbcnurJ_hs3PTn9qM-I-26" value="todo&lt;div&gt;ok?&lt;/div&gt;" style="strokeWidth=2;html=1;shape=mxgraph.flowchart.extract_or_measurement;whiteSpace=wrap;" vertex="1" parent="WIyWlLk6GJQsqaUBKTNV-1">
          <mxGeometry x="272.5" y="410" width="95" height="60" as="geometry" />
        </mxCell>
        <mxCell id="tJbcnurJ_hs3PTn9qM-I-27" style="edgeStyle=orthogonalEdgeStyle;rounded=0;orthogonalLoop=1;jettySize=auto;html=1;entryX=0.5;entryY=0;entryDx=0;entryDy=0;entryPerimeter=0;" edge="1" parent="WIyWlLk6GJQsqaUBKTNV-1" source="tJbcnurJ_hs3PTn9qM-I-3" target="tJbcnurJ_hs3PTn9qM-I-26">
          <mxGeometry relative="1" as="geometry" />
        </mxCell>
        <mxCell id="tJbcnurJ_hs3PTn9qM-I-32" style="edgeStyle=orthogonalEdgeStyle;rounded=0;orthogonalLoop=1;jettySize=auto;html=1;exitX=0.78;exitY=0.5;exitDx=0;exitDy=0;exitPerimeter=0;entryX=0.5;entryY=1;entryDx=0;entryDy=0;" edge="1" parent="WIyWlLk6GJQsqaUBKTNV-1" source="tJbcnurJ_hs3PTn9qM-I-35" target="tJbcnurJ_hs3PTn9qM-I-9">
          <mxGeometry relative="1" as="geometry">
            <mxPoint x="630" y="440" as="targetPoint" />
          </mxGeometry>
        </mxCell>
        <mxCell id="tJbcnurJ_hs3PTn9qM-I-33" value="NO" style="edgeLabel;html=1;align=center;verticalAlign=middle;resizable=0;points=[];" vertex="1" connectable="0" parent="tJbcnurJ_hs3PTn9qM-I-32">
          <mxGeometry x="-0.1127" relative="1" as="geometry">
            <mxPoint x="-103" as="offset" />
          </mxGeometry>
        </mxCell>
        <mxCell id="tJbcnurJ_hs3PTn9qM-I-34" value="SÍ" style="edgeStyle=orthogonalEdgeStyle;rounded=0;orthogonalLoop=1;jettySize=auto;html=1;entryX=0.5;entryY=0;entryDx=0;entryDy=0;" edge="1" parent="WIyWlLk6GJQsqaUBKTNV-1" source="tJbcnurJ_hs3PTn9qM-I-35" target="tJbcnurJ_hs3PTn9qM-I-6">
          <mxGeometry relative="1" as="geometry">
            <mxPoint x="320" y="780" as="targetPoint" />
          </mxGeometry>
        </mxCell>
        <mxCell id="tJbcnurJ_hs3PTn9qM-I-35" value="todo&lt;div&gt;ok?&lt;/div&gt;" style="strokeWidth=2;html=1;shape=mxgraph.flowchart.extract_or_measurement;whiteSpace=wrap;" vertex="1" parent="WIyWlLk6GJQsqaUBKTNV-1">
          <mxGeometry x="272.5" y="660" width="95" height="60" as="geometry" />
        </mxCell>
        <mxCell id="tJbcnurJ_hs3PTn9qM-I-36" style="edgeStyle=orthogonalEdgeStyle;rounded=0;orthogonalLoop=1;jettySize=auto;html=1;entryX=0.5;entryY=0;entryDx=0;entryDy=0;entryPerimeter=0;exitX=0.5;exitY=1;exitDx=0;exitDy=0;" edge="1" parent="WIyWlLk6GJQsqaUBKTNV-1" target="tJbcnurJ_hs3PTn9qM-I-35" source="tJbcnurJ_hs3PTn9qM-I-5">
          <mxGeometry relative="1" as="geometry">
            <mxPoint x="320" y="650" as="sourcePoint" />
          </mxGeometry>
        </mxCell>
        <mxCell id="tJbcnurJ_hs3PTn9qM-I-37" style="edgeStyle=orthogonalEdgeStyle;rounded=0;orthogonalLoop=1;jettySize=auto;html=1;exitX=0.78;exitY=0.5;exitDx=0;exitDy=0;exitPerimeter=0;entryX=0.5;entryY=1;entryDx=0;entryDy=0;" edge="1" parent="WIyWlLk6GJQsqaUBKTNV-1" source="tJbcnurJ_hs3PTn9qM-I-40" target="tJbcnurJ_hs3PTn9qM-I-9">
          <mxGeometry relative="1" as="geometry">
            <mxPoint x="610" y="890" as="targetPoint" />
          </mxGeometry>
        </mxCell>
        <mxCell id="tJbcnurJ_hs3PTn9qM-I-38" value="NO" style="edgeLabel;html=1;align=center;verticalAlign=middle;resizable=0;points=[];" vertex="1" connectable="0" parent="tJbcnurJ_hs3PTn9qM-I-37">
          <mxGeometry x="-0.1127" relative="1" as="geometry">
            <mxPoint as="offset" />
          </mxGeometry>
        </mxCell>
        <mxCell id="tJbcnurJ_hs3PTn9qM-I-39" value="SÍ" style="edgeStyle=orthogonalEdgeStyle;rounded=0;orthogonalLoop=1;jettySize=auto;html=1;entryX=0.5;entryY=0;entryDx=0;entryDy=0;" edge="1" parent="WIyWlLk6GJQsqaUBKTNV-1" source="tJbcnurJ_hs3PTn9qM-I-40" target="tJbcnurJ_hs3PTn9qM-I-7">
          <mxGeometry relative="1" as="geometry">
            <mxPoint x="460" y="940" as="targetPoint" />
          </mxGeometry>
        </mxCell>
        <mxCell id="tJbcnurJ_hs3PTn9qM-I-40" value="todo&lt;div&gt;ok?&lt;/div&gt;" style="strokeWidth=2;html=1;shape=mxgraph.flowchart.extract_or_measurement;whiteSpace=wrap;" vertex="1" parent="WIyWlLk6GJQsqaUBKTNV-1">
          <mxGeometry x="272.5" y="860" width="95" height="60" as="geometry" />
        </mxCell>
        <mxCell id="tJbcnurJ_hs3PTn9qM-I-41" style="edgeStyle=orthogonalEdgeStyle;rounded=0;orthogonalLoop=1;jettySize=auto;html=1;entryX=0.5;entryY=0;entryDx=0;entryDy=0;entryPerimeter=0;exitX=0.5;exitY=1;exitDx=0;exitDy=0;" edge="1" parent="WIyWlLk6GJQsqaUBKTNV-1" target="tJbcnurJ_hs3PTn9qM-I-40" source="tJbcnurJ_hs3PTn9qM-I-6">
          <mxGeometry relative="1" as="geometry">
            <mxPoint x="320" y="860" as="sourcePoint" />
          </mxGeometry>
        </mxCell>
      </root>
    </mxGraphModel>
  </diagram>
</mxfile>
